<svg width="125" height="38" viewBox="0 0 125 38" fill="none" xmlns="http://www.w3.org/2000/svg">
<path d="M124.5 0.5V37.5H0.5V0.5H124.5Z" fill="#FEFFFE" stroke="black"/>
<path d="M17.1 22.84C17.1 23.9867 16.8333 24.8 16.3 25.28C15.78 25.76 14.9133 26 13.7 26H9.7V12H13.46C14.6467 12 15.5133 12.24 16.06 12.72C16.62 13.2 16.9 14 16.9 15.12V16.26C16.9 17.2867 16.5333 18.06 15.8 18.58C16.6667 19.06 17.1 19.88 17.1 21.04V22.84ZM15.16 14.94C15.16 14.4333 15.04 14.0667 14.8 13.84C14.5733 13.6133 14.2067 13.5 13.7 13.5H11.44V17.92H13.7C14.1133 17.92 14.46 17.7867 14.74 17.52C15.02 17.2533 15.16 16.9 15.16 16.46V14.94ZM15.36 20.86C15.36 20.42 15.2267 20.0733 14.96 19.82C14.6933 19.5533 14.34 19.42 13.9 19.42H11.44V24.5H13.88C14.3867 24.5 14.76 24.3867 15 24.16C15.24 23.92 15.36 23.5467 15.36 23.04V20.86ZM22.2608 24.5V17.5H20.8008V16H23.8608V16.54C24.3008 16.18 24.8341 16 25.4608 16H27.5208V17.6H25.2608C24.8341 17.6 24.5141 17.74 24.3008 18.02C24.0874 18.2867 23.9741 18.56 23.9608 18.84V24.5H26.1408V26H20.8008V24.5H22.2608ZM34.8816 26C33.7082 26 32.8482 25.7533 32.3016 25.26C31.7549 24.7533 31.4816 23.9333 31.4816 22.8V19.2C31.4816 18.0533 31.7282 17.2333 32.2216 16.74C32.7149 16.2467 33.5349 16 34.6816 16H35.6216C36.5682 16 37.2816 16.2667 37.7616 16.8C38.2549 17.32 38.5016 18.0867 38.5016 19.1V21.7H33.1816V23.2C33.1816 23.6133 33.3082 23.9333 33.5616 24.16C33.8149 24.3867 34.1882 24.5 34.6816 24.5H37.8616V26H34.8816ZM36.8416 18.7C36.8416 18.3533 36.7282 18.0667 36.5016 17.84C36.2749 17.6133 35.9882 17.5 35.6416 17.5H34.4816C34.0016 17.5 33.6616 17.6133 33.4616 17.84C33.2749 18.0533 33.1816 18.3733 33.1816 18.8V20.2H36.8416V18.7ZM48.7423 26C48.569 26 48.3757 25.9467 48.1623 25.84C47.9623 25.7333 47.789 25.5867 47.6423 25.4C47.3357 25.8 46.929 26 46.4223 26H44.6423C43.629 26 42.889 25.8 42.4223 25.4C41.969 24.9867 41.7423 24.2867 41.7423 23.3V22.9C41.7423 20.8333 42.7157 19.8 44.6623 19.8H47.1423V18.8C47.1423 18.3867 47.0157 18.0667 46.7623 17.84C46.509 17.6133 46.1357 17.5 45.6423 17.5H42.5423V16H45.4423C46.6023 16 47.4557 16.2533 48.0023 16.76C48.5623 17.2667 48.8423 18.08 48.8423 19.2V24C48.8423 24.2 48.9157 24.3533 49.0623 24.46C49.2223 24.5533 49.4823 24.6 49.8423 24.6V26H48.7423ZM46.2223 24.5C46.6223 24.5 46.8757 24.4067 46.9823 24.22C47.089 24.0333 47.1423 23.7933 47.1423 23.5V21.3H44.6423C44.2957 21.3 44.009 21.4133 43.7823 21.64C43.5557 21.8667 43.4423 22.1533 43.4423 22.5V23.5C43.4423 23.8467 43.5223 24.1 43.6823 24.26C43.8423 24.42 44.0957 24.5 44.4423 24.5H46.2223ZM58.7031 25.54C58.2631 25.8467 57.7298 26 57.1031 26H56.2831C55.1098 26 54.2498 25.7533 53.7031 25.26C53.1565 24.7533 52.8831 23.9333 52.8831 22.8V19.2C52.8831 18.08 53.1565 17.2667 53.7031 16.76C54.2631 16.2533 55.1231 16 56.2831 16H58.6031V12H60.3031V26H58.7031V25.54ZM57.3031 24.5C57.7431 24.5 58.0698 24.3867 58.2831 24.16C58.4965 23.92 58.6031 23.6667 58.6031 23.4V17.5H56.0831C55.5898 17.5 55.2165 17.6133 54.9631 17.84C54.7098 18.0667 54.5831 18.3867 54.5831 18.8V23.2C54.5831 23.6133 54.7098 23.9333 54.9631 24.16C55.2165 24.3867 55.5898 24.5 56.0831 24.5H57.3031ZM71.0639 22.8C71.0639 23.92 70.7839 24.7333 70.2239 25.24C69.6772 25.7467 68.8239 26 67.6639 26H63.7439V12H65.4439V16.4C65.8439 16.1333 66.3439 16 66.9439 16H67.6639C68.8372 16 69.6972 16.2533 70.2439 16.76C70.7906 17.2533 71.0639 18.0667 71.0639 19.2V22.8ZM66.7439 17.5C66.3039 17.5 65.9772 17.62 65.7639 17.86C65.5506 18.0867 65.4439 18.3333 65.4439 18.6V24.5H67.8639C68.3572 24.5 68.7306 24.3867 68.9839 24.16C69.2372 23.9333 69.3639 23.6133 69.3639 23.2V18.8C69.3639 18.3867 69.2372 18.0667 68.9839 17.84C68.7306 17.6133 68.3572 17.5 67.8639 17.5H66.7439ZM81.9247 22.8C81.9247 23.92 81.6447 24.7333 81.0847 25.24C80.538 25.7467 79.6847 26 78.5247 26H77.8647C76.7047 26 75.8447 25.7467 75.2847 25.24C74.738 24.7333 74.4647 23.92 74.4647 22.8V19.2C74.4647 18.08 74.738 17.2667 75.2847 16.76C75.8447 16.2533 76.7047 16 77.8647 16H78.5247C79.6847 16 80.538 16.2533 81.0847 16.76C81.6447 17.2667 81.9247 18.08 81.9247 19.2V22.8ZM80.2247 18.8C80.2247 18.3867 80.098 18.0667 79.8447 17.84C79.5914 17.6133 79.218 17.5 78.7247 17.5H77.6647C77.1714 17.5 76.798 17.6133 76.5447 17.84C76.2914 18.0667 76.1647 18.3867 76.1647 18.8V23.2C76.1647 23.6133 76.2914 23.9333 76.5447 24.16C76.798 24.3867 77.1714 24.5 77.6647 24.5H78.7247C79.218 24.5 79.5914 24.3867 79.8447 24.16C80.098 23.9333 80.2247 23.6133 80.2247 23.2V18.8ZM91.9455 26C91.7721 26 91.5788 25.9467 91.3655 25.84C91.1655 25.7333 90.9921 25.5867 90.8455 25.4C90.5388 25.8 90.1321 26 89.6255 26H87.8455C86.8321 26 86.0921 25.8 85.6255 25.4C85.1721 24.9867 84.9455 24.2867 84.9455 23.3V22.9C84.9455 20.8333 85.9188 19.8 87.8655 19.8H90.3455V18.8C90.3455 18.3867 90.2188 18.0667 89.9655 17.84C89.7121 17.6133 89.3388 17.5 88.8455 17.5H85.7455V16H88.6455C89.8055 16 90.6588 16.2533 91.2055 16.76C91.7655 17.2667 92.0455 18.08 92.0455 19.2V24C92.0455 24.2 92.1188 24.3533 92.2655 24.46C92.4255 24.5533 92.6855 24.6 93.0455 24.6V26H91.9455ZM89.4255 24.5C89.8255 24.5 90.0788 24.4067 90.1855 24.22C90.2921 24.0333 90.3455 23.7933 90.3455 23.5V21.3H87.8455C87.4988 21.3 87.2121 21.4133 86.9855 21.64C86.7588 21.8667 86.6455 22.1533 86.6455 22.5V23.5C86.6455 23.8467 86.7255 24.1 86.8855 24.26C87.0455 24.42 87.2988 24.5 87.6455 24.5H89.4255ZM97.8663 24.5V17.5H96.4063V16H99.4663V16.54C99.9063 16.18 100.44 16 101.066 16H103.126V17.6H100.866C100.44 17.6 100.12 17.74 99.9063 18.02C99.6929 18.2867 99.5796 18.56 99.5663 18.84V24.5H101.746V26H96.4063V24.5H97.8663ZM112.707 25.54C112.267 25.8467 111.734 26 111.107 26H110.287C109.114 26 108.254 25.7533 107.707 25.26C107.16 24.7533 106.887 23.9333 106.887 22.8V19.2C106.887 18.08 107.16 17.2667 107.707 16.76C108.267 16.2533 109.127 16 110.287 16H112.607V12H114.307V26H112.707V25.54ZM111.307 24.5C111.747 24.5 112.074 24.3867 112.287 24.16C112.5 23.92 112.607 23.6667 112.607 23.4V17.5H110.087C109.594 17.5 109.22 17.6133 108.967 17.84C108.714 18.0667 108.587 18.3867 108.587 18.8V23.2C108.587 23.6133 108.714 23.9333 108.967 24.16C109.22 24.3867 109.594 24.5 110.087 24.5H111.307Z" fill="#0A100D"/>
<line x1="10" y1="30.5" x2="115" y2="30.5" stroke="#0A100D"/>
<line x1="10" y1="34.5" x2="115" y2="34.5" stroke="#3F7CAC"/>
<line x1="10" y1="7.5" x2="115" y2="7.5" stroke="#0A100D"/>
<line x1="10" y1="3.5" x2="115" y2="3.5" stroke="#BD0F32"/>
<circle cx="5" cy="5" r="2" fill="#D9D9D9"/>
<circle cx="5" cy="33" r="2" fill="#D9D9D9"/>
<circle cx="120" cy="5" r="2" fill="#D9D9D9"/>
<circle cx="120" cy="33" r="2" fill="#D9D9D9"/>
</svg>
