<svg width="158" height="56" viewBox="0 0 158 56" fill="none" xmlns="http://www.w3.org/2000/svg">
<mask id="mask0_1943_1161" style="mask-type:luminance" maskUnits="userSpaceOnUse" x="0" y="0" width="158" height="56">
<path d="M157.8 0H0V55.2H157.8V0Z" fill="white"/>
</mask>
<g mask="url(#mask0_1943_1161)">
<path d="M16.767 3.52911C16.7882 3.48057 16.8162 3.44247 16.8601 3.41271C17.9484 2.67402 33.7636 -7.28046 71.2273 10.6831C106.615 27.6513 142.298 7.79418 148.71 3.82422C148.923 3.69267 149.279 4.03119 149.165 4.25346L142.72 16.7983C142.618 16.9959 142.758 17.2313 142.98 17.2343C144.656 17.2576 150.5 17.3248 157.044 17.2379C157.316 17.2343 157.47 17.5432 157.273 17.7296C152.877 21.8773 121.855 50.3094 97.4995 50.3094C71.2273 50.3094 56.9995 44.1729 40.1995 39.5322C23.6565 34.9626 15.6948 33.4296 5.57289 35.1102C5.35458 35.1465 5.16981 34.9437 5.23041 34.731L9.1494 20.9697L16.767 3.52911Z" fill="#EC3750"/>
<path d="M25.1051 9.93431C24.7064 12.1885 23.9413 16.0606 22.3329 21.0645C18.9921 29.0452 24.6897 27.7435 26.3212 24.4277C27.2882 22.5968 28.2827 20.6099 28.2827 20.6099L33.4031 22.573C33.4031 22.573 32.9909 24.9047 32.5694 26.8339C30.9608 31.8378 35.6501 31.2369 36.947 27.5404C37.5242 25.6393 40.2143 17.702 40.9562 13.5046C42.0746 10.8186 38.2466 8.36627 36.5147 12.7066C35.5889 14.3043 34.0856 17.8035 34.0856 17.8035C34.0856 17.8035 29.8591 16.2419 29.8088 16.0724C29.6438 15.642 30.1616 14.532 30.1844 13.4936C29.927 6.30989 25.641 6.90272 25.1051 9.93431Z" fill="white" stroke="white" stroke-width="0.075" stroke-miterlimit="10"/>
<path d="M47.6653 15.5287C48.9685 12.9343 50.4649 12.4992 51.5776 12.6174C52.0576 12.6572 52.7104 13.6335 53.2096 14.5713C54.844 20.7476 51.9151 32.107 51.3973 32.8699C49.6147 35.7493 46.4869 35.2048 47.6749 32.0941C48.2299 30.2044 48.8242 28.4866 48.8242 28.4866L44.7754 28.0345C41.5939 34.2151 38.7334 31.6273 40.3819 28.9573C42.1453 25.8294 45.9022 18.9815 47.6653 15.5287ZM46.327 23.4727L50.3182 24.1539C50.3182 24.1539 51.4268 17.126 50.1803 17.8674L46.327 23.4727Z" fill="white" stroke="white" stroke-width="0.075" stroke-miterlimit="10"/>
<path d="M68.2754 21.7555C68.8037 20.267 67.7054 16.9011 63.8684 17.4624C58.3109 17.5024 56.3882 27.2399 56.3882 27.2399C56.3882 27.2399 55.4645 31.9559 56.9222 35.1701C58.247 38.2691 61.4606 38.279 62.0846 38.3576C65.7323 37.2608 64.4831 34.8305 63.8594 34.7522C63.0653 34.7117 61.988 34.8419 61.118 34.1324C59.6429 32.9435 59.9057 29.9257 60.2261 28.3026C60.9806 25.5729 62.6411 20.1523 65.2886 21.4787C66.8774 23.509 67.9922 22.5764 68.2754 21.7555Z" fill="white" stroke="white" stroke-width="0.075" stroke-miterlimit="10"/>
<path d="M71.9318 21.5053C70.9547 24.4894 72.1799 27.6324 69.7364 33.3131C69.1538 34.7006 67.7249 37.2452 67.5557 37.6064C66.2021 40.1708 68.9507 41.6822 71.9783 37.2017C72.7118 36.1763 73.5197 33.5534 73.5197 33.5534L74.837 33.4055C74.837 33.4055 75.9878 38.4698 76.2527 40.6394C76.5359 42.7331 80.2445 43.9241 80.2985 39.815C80.1662 38.4065 79.6754 36.5024 78.752 34.0835C78.752 34.0835 78.1487 32.312 77.5652 32.0819C77.5652 32.0819 81.7034 27.9665 82.0979 26.3693C82.511 24.6965 81.7574 23.5335 78.5216 26.263C75.2861 28.9929 74.9102 29.8668 74.9102 29.8668C74.9102 29.8668 75.6797 26.4254 75.6029 23.8187C75.884 21.0611 72.7772 19.0536 71.9318 21.5053Z" fill="white" stroke="white" stroke-width="0.075" stroke-miterlimit="10"/>
<path d="M92.7715 26.6905C91.3831 28.0669 90.5095 30.6507 90.607 34.56C90.8005 40.3953 93.2182 43.7478 97.3462 43.0803C101.474 42.4125 100.502 39.4341 100.122 39.3354C99.8176 39.2565 99.7411 38.9064 98.0485 39.543C96.3553 40.1793 95.0806 39.4362 94.0135 36.8463C93.3085 35.0937 92.9263 31.689 94.1998 29.7873C94.5802 29.2244 94.9414 29.0698 95.1316 28.9537C95.8924 28.4896 96.6724 28.9393 96.8059 29.0564C98.9377 30.5994 99.355 28.8894 98.593 27.3699C97.0891 25.2454 95.0914 24.8113 92.7715 26.6905Z" fill="white" stroke="white" stroke-width="0.075" stroke-miterlimit="10"/>
<path d="M102 26.7788C101.98 24.5638 104.267 22.8563 105.071 27.8092C106.064 31.0096 105.811 37.198 106.288 37.771C106.764 38.344 110.311 37.5442 111.271 37.2211C112.231 36.898 114 37.3222 113.601 38.284C113.277 39.2653 112.362 39.3586 112.171 39.4738C111.98 39.5887 103.964 41.965 103.667 40.3831C103.369 38.8009 103.35 38.0728 103.05 35.3785C102.75 32.6839 102.021 28.9941 102 26.7788Z" fill="white" stroke="white" stroke-width="0.075" stroke-miterlimit="10"/>
<path d="M111.612 24.7962C111.438 23.1949 113.071 22.2165 114.033 23.9359C114.764 25.2687 115.612 31.0573 116.805 33.4912C117.459 34.4767 118.804 34.6543 119.438 33.7501C120.186 32.383 119.646 28.9678 119.184 26.2277C118.856 24.9152 118.479 23.9119 118.498 23.179C118.785 20.7113 120.764 21.296 121.688 23.8253C122.457 26.6436 123.26 31.1968 122.857 32.8156C122.474 34.357 122.071 36.3037 120.073 36.7798C119.555 36.8941 115.232 37.5169 113.712 32.7871C112.248 27.8261 111.786 26.3975 111.612 24.7962Z" fill="white" stroke="white" stroke-width="0.075" stroke-miterlimit="10"/>
<path d="M125.169 19.5099C127.827 17.903 129.822 17.3516 131.379 17.9143C132.291 18.4746 132.881 20.0145 132.635 21.3403C132.351 22.4929 131.877 23.4334 131.877 23.4334C133.453 23.5924 134.608 25.1662 134.908 27.226C135.208 29.2858 133.268 31.2245 129.659 32.4245C128.444 32.7668 127.152 32.7626 127.095 32.3396C127.056 31.5125 123.993 21.6595 123.993 21.6595C123.897 21.063 123.574 20.4085 125.169 19.5099ZM126.271 21.2629L127.603 24.3816C127.603 24.3816 130.832 23.0842 130.451 21.3525C130.07 19.6211 128.038 20.6529 126.271 21.2629ZM128.06 26.7863C128.06 26.7863 128.974 30.6149 128.936 30.4418C128.917 30.1919 133.643 29.2505 132.635 26.7863C131.627 24.3223 128.06 26.7863 128.06 26.7863Z" fill="white" stroke="white" stroke-width="0.075" stroke-miterlimit="10"/>
<path d="M16.8822 2.08983C16.8822 2.08983 17.1932 1.73206 17.7809 1.80661C18.3687 1.88116 18.2237 2.55933 18.0023 3.00119C17.7809 3.44306 12.2049 14.8764 8.16936 27.7729C4.13388 40.6694 4.44243 54.4499 4.44243 55.1999H0.0029509C-0.0575595 53.8499 0.783498 40.8752 5.22642 27.7729C9.66936 14.6704 16.2934 2.54522 16.8822 2.08983Z" fill="#D98B51"/>
</g>
</svg>
